<svg id="Warstwa_1" data-name="Warstwa 1" xmlns="http://www.w3.org/2000/svg" viewBox="0 0 554.8 224"><defs><style>.cls-1{fill:#121923;}</style></defs><path class="cls-1" d="M164.82,207.74l23.59-90.81h2l23.28,90.81ZM236.53,297h47.66L217,73H164.82L97.6,297h44.09L156,242.2h66.59Z" transform="translate(-97.6 -73)"/><path class="cls-1" d="M312.28,73V297h44.09V225.9h35.7c48.28,0,79-29.65,79-76.22,0-47-29.81-76.68-76.84-76.68Zm44.09,36.17h26.7c28.88,0,43.31,13.35,43.31,40.2,0,27-14.43,40.21-43.31,40.21h-26.7Z" transform="translate(-97.6 -73)"/><path class="cls-1" d="M652.4,297V259.12H606V110.88H652.4V73H515.48v37.88H561.9V259.12H515.48V297Z" transform="translate(-97.6 -73)"/></svg>