<svg id="Warstwa_1" data-name="Warstwa 1" xmlns="http://www.w3.org/2000/svg" viewBox="0 0 14.05 27.24"><defs><style>.cls-1{fill:#704a98;}.cls-2{fill:#010101;}</style></defs><path class="cls-1" d="M16.86,9.68l-7-4-7,4.05v-4l7-4.06,7,4.06V9.68Z" transform="translate(-2.81 -1.57)"/><path class="cls-2" d="M2.81,13.09H6.49V22a3.27,3.27,0,0,0,3.34,3.44A3.3,3.3,0,0,0,13.18,22V13.09h3.68v9.15a6.06,6.06,0,0,1-2,4.9,7.52,7.52,0,0,1-5,1.67,7.39,7.39,0,0,1-5-1.67,6,6,0,0,1-2-4.8Z" transform="translate(-2.81 -1.57)"/></svg>