<svg id="Warstwa_1" data-name="Warstwa 1" xmlns="http://www.w3.org/2000/svg" viewBox="0 0 144 144"><defs><style>.cls-1{fill:#e84a24;}</style></defs><path id="UiPath_Logo_full" data-name="UiPath Logo full" class="cls-1" d="M3,3H147V147H3ZM132,132V18H18V132ZM30.9,40.2V83.7c0,19.9,10.9,31.7,29.4,31.7,19,0,29.9-11.8,29.9-31.7V40.2h-15V83.7c0,11.2-4.9,17.6-14.7,17.6-10.4,0-15-6.6-15-17.6V40.2Zm78.6,8.9c5.2,0,9.2-3.7,9.2-8.9,0-5.5-3.7-9.2-9.2-9.2a9.05,9.05,0,1,0,0,18.1ZM102.1,56v58.5h15V56Z" transform="translate(-3 -3)"/></svg>